<?xml version="1.0" encoding="UTF-8"?>
<svg id="_레이어_2" data-name="레이어 2" xmlns="http://www.w3.org/2000/svg" viewBox="0 0 119.59 134.48">
  <defs>
    <style>
      .cls-1 {
        fill: #2877ea;
      }
    </style>
  </defs>
  <g id="_레이어_1-2" data-name="레이어 1">
    <path class="cls-1" d="M75.6,2.11C43.77-6.6,10.56,12.45,2.04,44.33c-5.56,20.79.56,41.93,14.3,56.5.45.47.72,1.07.8,1.72.62,4.99,2.27,10.63,3.85,15.19.62,1.79,3.26,1.32,3.23-.57-.15-8.47.81-16.94,3.05-25.1,2.85-10.36,7.22-20.32,13.77-28.78.11-.14.23-.29.35-.43l-5.63-3.03c-1.77-.95-2.11-3.34-.68-4.74l2.54-2.51c.68-.67,1.65-.98,2.6-.81l10.25,1.77c.95.16,1.93-.14,2.61-.83l5.13-5.13c1.49-1.49,1-4.02-.94-4.85l-20.97-8.93c-1.93-.82-2.43-3.32-.96-4.82l3.55-3.64c.69-.7,1.68-1.02,2.65-.85l32.19,5.69c.96.17,1.94-.14,2.62-.83l10.26-10.26c1.4-1.4,3.15-2.11,5.22-2.11s3.82.7,5.22,2.11c1.4,1.4,2.11,3.13,2.11,5.18s-.7,3.77-2.11,5.18l-10.35,10.35c-.69.69-1,1.67-.83,2.63l5.69,32.12c.17.96-.14,1.94-.83,2.63l-3.58,3.58c-1.49,1.49-4.01,1-4.84-.93l-8.99-20.96c-.83-1.94-3.35-2.42-4.84-.93l-5.13,5.13c-.69.69-1,1.67-.83,2.64l1.83,10.12c.17.96-.13,1.95-.83,2.64l-2.57,2.57c-1.41,1.41-3.78,1.06-4.73-.69l-2.64-4.9c-1.29,3-3.28,8.31-4.51,15-1.47,6.94-1.85,14.15-.56,21,.12.69.57,2.48,1.3,4.84.76,2.88,1.8,5.79,3.16,8.71,1.33,3.15,2.92,6.31,4.69,8.82.98,1.4,3.18.55,3-1.14l-1.06-9.86c-.18-1.7,1.1-3.21,2.8-3.28,25.47-1.12,48.35-18.56,55.17-44.51,8.35-31.73-10.44-64.22-42.01-72.87Z"/>
  </g>
</svg>